<?xml version="1.0" encoding="iso-8859-1"?>
<!-- Generator: Adobe Illustrator 19.0.0, SVG Export Plug-In . SVG Version: 6.00 Build 0)  -->
<svg version="1.1" id="Layer_1" xmlns="http://www.w3.org/2000/svg" xmlns:xlink="http://www.w3.org/1999/xlink" x="0px" y="0px"
	 viewBox="0 0 512.001 512.001" style="enable-background:new 0 0 512.001 512.001;" xml:space="preserve">
<g>
	<g>
		<path d="M220.338,111.909h-53.355c-9.963,0-18.04,8.077-18.04,18.04s8.076,18.04,18.04,18.04h53.355
			c9.963,0,18.04-8.077,18.04-18.04S230.301,111.909,220.338,111.909z"/>
	</g>
</g>
<g>
	<g>
		<path d="M220.338,180.188h-53.355c-9.963,0-18.04,8.077-18.04,18.04c0,9.964,8.076,18.04,18.04,18.04h53.355
			c9.963,0,18.04-8.077,18.04-18.04S230.301,180.188,220.338,180.188z"/>
	</g>
</g>
<g>
	<g>
		<path d="M472.48,43.629h-96.201l4.951-21.543c2.231-9.71-3.832-19.391-13.541-21.623c-9.716-2.232-19.392,3.832-21.623,13.541
			l-6.808,29.625H39.521c-9.963,0-18.04,8.077-18.04,18.04s8.077,18.04,18.04,18.04h29.994c0,16.068,0,367.608,0,383.68
			c0,26.805,21.802,48.612,48.6,48.612h275.771c26.798,0,48.6-21.807,48.6-48.612c0-19.131,0-370.967,0-383.68h29.995
			c9.963,0,18.04-8.077,18.04-18.04C490.52,51.704,482.443,43.629,472.48,43.629z M220.338,421.108h-53.355
			c-9.963,0-18.04-8.077-18.04-18.04s8.077-18.04,18.04-18.04h53.355c9.963,0,18.04,8.077,18.04,18.04
			S230.301,421.108,220.338,421.108z M220.338,352.828h-53.355c-9.963,0-18.04-8.077-18.04-18.04c0-9.963,8.077-18.04,18.04-18.04
			h53.355c9.963,0,18.04,8.077,18.04,18.04C238.378,344.751,230.301,352.828,220.338,352.828z M105.595,248.473V79.713h225.37
			l-38.782,168.759H105.595z M334.674,441.225c-20.297,0-36.752-16.455-36.752-36.752c0-20.297,16.454-36.752,36.752-36.752
			c20.297,0,36.752,16.455,36.752,36.752C371.425,424.771,354.971,441.225,334.674,441.225z M406.406,248.473L406.406,248.473
			h-77.203l38.784-168.758h38.419V248.473z"/>
	</g>
</g>
<g>
</g>
<g>
</g>
<g>
</g>
<g>
</g>
<g>
</g>
<g>
</g>
<g>
</g>
<g>
</g>
<g>
</g>
<g>
</g>
<g>
</g>
<g>
</g>
<g>
</g>
<g>
</g>
<g>
</g>
</svg>
